<?xml version="1.0" encoding="UTF-8" standalone="no"?>
<!-- Created with Inkscape (http://www.inkscape.org/) -->

<svg
   width="2500"
   height="3000"
   viewBox="0 0 661.45811 793.75002"
   version="1.1"
   id="svg5"
   inkscape:version="1.1.2 (b8e25be833, 2022-02-05)"
   sodipodi:docname="hackerrank.svg"
   xmlns:inkscape="http://www.inkscape.org/namespaces/inkscape"
   xmlns:sodipodi="http://sodipodi.sourceforge.net/DTD/sodipodi-0.dtd"
   xmlns="http://www.w3.org/2000/svg"
   xmlns:svg="http://www.w3.org/2000/svg">
  <sodipodi:namedview
     id="namedview7"
     pagecolor="#ffffff"
     bordercolor="#666666"
     borderopacity="1.0"
     inkscape:pageshadow="2"
     inkscape:pageopacity="0.0"
     inkscape:pagecheckerboard="0"
     inkscape:document-units="px"
     showgrid="false"
     inkscape:zoom="0.15795826"
     inkscape:cx="1509.8925"
     inkscape:cy="1538.3811"
     inkscape:window-width="1366"
     inkscape:window-height="745"
     inkscape:window-x="-8"
     inkscape:window-y="-8"
     inkscape:window-maximized="1"
     inkscape:current-layer="layer1"
     units="px"
     height="2246.0393px"
     width="1622.4016px" />
  <defs
     id="defs2" />
  <g
     inkscape:label="Layer 1"
     inkscape:groupmode="layer"
     id="layer1">
    <path
       style="fill:#e6e6e6;stroke-width:7.87398"
       d="M 229.3989,743.37484 C 132.42556,689.8996 23.954863,612.86084 10.976369,588.2452 -2.3907717,562.89247 -2.3907717,224.98035 10.976369,199.62761 32.980221,157.89421 286.32632,0.19606767 331.36829,0.19606767 c 43.76838,0 296.65725,158.47136233 318.25355,199.43154233 13.36704,25.35274 13.36704,363.26486 0,388.61759 -21.5963,40.96022 -274.48517,199.43157 -318.25355,199.43157 -11.89711,0 -57.78331,-19.93586 -101.96939,-44.30193 z M 447.2384,607.45489 c 18.47825,-20.93233 19.7428,-25.10248 8.97233,-29.58796 -11.0966,-4.62128 -12.53754,-23.97744 -12.53754,-168.40231 V 246.2838 h -26.14832 -26.14818 l -2.1954,67.6742 -2.19521,67.674 h -56.68697 -56.68707 l -2.19649,-77.79407 c -1.86447,-66.03262 -0.22046,-79.3626 10.87435,-88.16739 12.08523,-9.5905 11.4314,-12.23037 -8.66526,-34.99593 -27.03646,-30.6269 -33.43079,-30.65409 -60.26475,-0.25649 -18.4783,20.93234 -19.74286,25.10245 -8.97235,29.5879 11.11072,4.6273 12.53751,24.25868 12.53751,172.5038 v 167.28231 h 26.45394 26.45391 V 492.3716 434.95101 h 60.46621 60.46606 v 69.72493 c 0,56.50896 -2.14878,69.72491 -11.33732,69.72491 -16.26428,0 -14.10887,8.26715 8.97229,34.41364 25.53424,28.92501 32.24073,28.77007 58.83826,-1.35854 z"
       id="path926" />
  </g>
</svg>
